<?xml version="1.0" encoding="UTF-8"?>
<svg version="1.1" xmlns="http://www.w3.org/2000/svg" width="2000" height="2000">
<path d="M0 0 C1.86088719 -0.00135001 3.72177411 -0.00313579 5.58266053 -0.00531223 C10.66576874 -0.01000528 15.74885887 -0.00855266 20.83196793 -0.00603446 C26.37385879 -0.00439253 31.91574593 -0.00854955 37.45763558 -0.01194364 C47.16084872 -0.01708484 56.86405687 -0.01851706 66.56727123 -0.01748753 C80.32086495 -0.01603181 94.07445374 -0.01963605 107.82804642 -0.0246271 C135.77889167 -0.03475525 163.72973491 -0.03783249 191.68058179 -0.03841921 C194.6864302 -0.03848396 197.69227862 -0.0385519 200.69812703 -0.03862262 C201.44409542 -0.03863962 202.1900638 -0.03865663 202.95863729 -0.03867415 C219.51115844 -0.03908312 236.06367921 -0.04127473 252.61620016 -0.04377846 C259.43839743 -0.04480687 266.26059471 -0.04579692 273.08279198 -0.04679471 C274.21359055 -0.0469606 274.21359055 -0.0469606 275.36723354 -0.04712983 C318.5517808 -0.05345153 361.7363278 -0.05757921 404.92087555 -0.05712128 C406.53602797 -0.0571055 408.15118039 -0.05708976 409.76633282 -0.05707407 C417.05811028 -0.05700069 424.34988775 -0.05691252 431.64166522 -0.05682018 C434.89304608 -0.05677906 438.14442694 -0.05673891 441.3958078 -0.05669887 C443.02318027 -0.05667848 444.65055273 -0.05665746 446.2779252 -0.05663581 C497.71967813 -0.0559558 549.16142417 -0.06326982 600.60317516 -0.07717609 C613.56197546 -0.08067737 626.52077576 -0.08414694 639.47957611 -0.08744049 C640.27759666 -0.08764336 641.0756172 -0.08784624 641.89782018 -0.08805526 C666.51179225 -0.09427474 691.12576374 -0.09803669 715.73973656 -0.09929848 C716.51304797 -0.09933843 717.28635938 -0.09937838 718.08310447 -0.09941954 C735.06303242 -0.100273 752.04296033 -0.10053395 769.02288829 -0.10024916 C775.09935872 -0.10015269 781.17582915 -0.10010064 787.25229959 -0.10007043 C788.76385894 -0.10006252 790.2754183 -0.10005232 791.78697765 -0.10003981 C815.82471714 -0.09986383 839.86245071 -0.10554747 863.90018851 -0.11419363 C888.1260994 -0.12286314 912.35200212 -0.12501809 936.57791391 -0.1184323 C951.5935659 -0.11435154 966.60919641 -0.11553238 981.62484634 -0.12582384 C991.21991088 -0.13184271 1000.81495675 -0.13050725 1010.41002045 -0.12335334 C1015.86619512 -0.11948789 1021.32231987 -0.1186494 1026.77849094 -0.12681069 C1055.18533692 -0.16652555 1083.40752677 0.11781071 1111.5619154 4.37863445 C1112.28296459 4.48467999 1113.00401379 4.59072552 1113.74691296 4.69998455 C1200.81159341 17.55995571 1283.41164164 56.56877975 1348.42519665 115.86300945 C1349.82244963 117.12336207 1351.22636684 118.37678858 1352.65493298 119.60153484 C1358.36281204 124.50453923 1363.69224769 129.73497051 1368.9994154 135.06613445 C1369.85857555 135.92142742 1370.71773571 136.77672039 1371.60293102 137.65793133 C1376.59057447 142.65319531 1381.35134929 147.76399186 1385.9369154 153.12863445 C1386.86231554 154.17699763 1387.78931688 155.22395031 1388.7181654 156.26925945 C1422.59641999 194.82208248 1449.19746574 240.46299901 1467.9369154 288.12863445 C1468.29382458 289.03548992 1468.65073376 289.94234539 1469.01845837 290.87668133 C1480.99908513 321.69204637 1488.98006794 354.12572587 1493.7494154 386.81613445 C1493.89846828 387.81388393 1493.89846828 387.81388393 1494.05053234 388.83178997 C1498.17928917 416.88861877 1498.23142689 445.03681395 1498.19385051 473.32242869 C1498.1887205 478.87740166 1498.19531906 484.43236382 1498.20033717 489.98733521 C1498.2075224 499.69798194 1498.20736505 509.40860639 1498.20224285 519.11925411 C1498.19500318 532.88191707 1498.19798724 546.64456511 1498.20380094 560.40722754 C1498.21434681 585.39016116 1498.21511157 610.37308604 1498.20950603 635.35602093 C1498.20410814 659.42554117 1498.20199905 683.49505728 1498.20454693 707.56457806 C1498.20470189 709.07930977 1498.2048562 710.59404149 1498.20500987 712.10877321 C1498.20563086 718.19660644 1498.2062682 724.28443967 1498.2069294 730.3722729 C1498.20876297 747.38786689 1498.20990449 764.4034609 1498.21050167 781.41905499 C1498.21052896 782.19375714 1498.21055625 782.96845929 1498.21058437 783.76663727 C1498.21140233 808.43376656 1498.20915226 833.1008946 1498.20480251 857.76802349 C1498.20459177 858.96723591 1498.20459177 858.96723591 1498.20437676 860.19067485 C1498.20208716 873.17175088 1498.1996481 886.15282689 1498.19719641 899.1339029 C1498.18748454 950.61099138 1498.18793532 1002.08806946 1498.19765759 1053.56515789 C1498.20010018 1066.53985372 1498.20252237 1079.51454955 1498.20480251 1092.48924541 C1498.20501386 1093.68776746 1498.20501386 1093.68776746 1498.20522947 1094.91050208 C1498.20954502 1119.55307286 1498.21136979 1144.19564277 1498.21050167 1168.83821392 C1498.21046092 1169.99940235 1498.21046092 1169.99940235 1498.21041934 1171.18404914 C1498.20979425 1188.18107611 1498.20852671 1205.17810299 1498.20668067 1222.17512987 C1498.20602245 1228.25735936 1498.20539628 1234.33958885 1498.20477924 1240.42181834 C1498.20462447 1241.93477107 1498.204467 1243.4477238 1498.20430685 1244.96067652 C1498.20176715 1269.01864991 1498.20460915 1293.07661876 1498.21000714 1317.13459155 C1498.21553613 1342.04885124 1498.21346896 1366.96310047 1498.20294455 1391.87735868 C1498.1970346 1406.22435244 1498.19666911 1420.57132527 1498.2042369 1434.91831884 C1498.20873987 1444.51637083 1498.2058978 1454.11440302 1498.19722736 1463.71245208 C1498.19249603 1469.17097541 1498.19078788 1474.62944964 1498.19803932 1480.08797133 C1498.23242846 1508.02781954 1497.88919097 1535.74370523 1493.7494154 1563.44113445 C1493.64431652 1564.16022991 1493.53921764 1564.87932537 1493.43093395 1565.6202116 C1480.55657846 1652.98631933 1441.52279336 1735.49438229 1382.08144665 1800.7653532 C1380.71054723 1802.27608935 1379.35237794 1803.79854046 1378.01113415 1805.3356657 C1372.85103306 1811.21717898 1367.3966497 1816.77537858 1361.8744154 1822.31613445 C1361.11846081 1823.07668133 1360.36250622 1823.8372282 1359.58364391 1824.62082195 C1354.86262236 1829.32900487 1349.99617901 1833.78840659 1344.9369154 1838.12863445 C1343.88871816 1839.05422255 1342.84176617 1839.98122349 1341.7962904 1840.90988445 C1315.78879582 1863.76394424 1286.44253568 1882.8610583 1255.9369154 1899.12863445 C1255.13930798 1899.5561198 1254.34170055 1899.98360516 1253.51992321 1900.42404461 C1189.91748169 1934.20267303 1117.63694969 1950.3485134 1045.8738308 1950.25726891 C1044.0129436 1950.25861892 1042.15205668 1950.2604047 1040.29117027 1950.26258114 C1035.20806205 1950.26727418 1030.12497193 1950.26582157 1025.04186287 1950.26330337 C1019.499972 1950.26166144 1013.95808487 1950.26581846 1008.41619521 1950.26921254 C998.71298208 1950.27435374 989.00977393 1950.27578597 979.30655956 1950.27475643 C965.55296584 1950.27330072 951.79937706 1950.27690496 938.04578438 1950.281896 C910.09493913 1950.29202416 882.14409589 1950.2951014 854.19324901 1950.29568812 C851.18740059 1950.29575287 848.18155218 1950.29582081 845.17570376 1950.29589152 C844.42973538 1950.29590853 843.68376699 1950.29592553 842.9151935 1950.29594305 C826.36267235 1950.29635203 809.81015159 1950.29854363 793.25763064 1950.30104737 C786.43543337 1950.30207577 779.61323609 1950.30306582 772.79103881 1950.30406362 C771.66024024 1950.3042295 771.66024024 1950.3042295 770.50659726 1950.30439874 C727.32205 1950.31072044 684.13750299 1950.31484811 640.95295525 1950.31439018 C639.33780282 1950.3143744 637.7226504 1950.31435867 636.10749798 1950.31434297 C628.81572051 1950.31426959 621.52394304 1950.31418143 614.23216558 1950.31408909 C610.98078472 1950.31404797 607.72940386 1950.31400782 604.478023 1950.31396778 C602.85065053 1950.31394738 601.22327806 1950.31392636 599.59590559 1950.31390472 C548.15415267 1950.31322471 496.71240663 1950.32053873 445.27065563 1950.334445 C432.31185534 1950.33794627 419.35305503 1950.34141585 406.39425468 1950.3447094 C405.59623414 1950.34491227 404.7982136 1950.34511514 403.97601061 1950.34532417 C379.36203855 1950.35154364 354.74806705 1950.3553056 330.13409424 1950.35656738 C329.36078283 1950.35660733 328.58747141 1950.35664728 327.79072632 1950.35668845 C310.81079838 1950.35754191 293.83087047 1950.35780285 276.85094251 1950.35751807 C270.77447207 1950.35742159 264.69800164 1950.35736954 258.62153121 1950.35733934 C257.10997185 1950.35733143 255.5984125 1950.35732122 254.08685315 1950.35730872 C230.04911366 1950.35713274 206.01138008 1950.36281638 181.97364229 1950.37146253 C157.7477314 1950.38013205 133.52182868 1950.382287 109.29591689 1950.37570121 C94.28026489 1950.37162044 79.26463439 1950.37280129 64.24898445 1950.38309274 C54.65391992 1950.38911162 45.05887404 1950.38777616 35.46381035 1950.38062225 C30.00763568 1950.3767568 24.55151092 1950.37591831 19.09533986 1950.3840796 C-9.21785026 1950.42366846 -37.37235857 1950.15940165 -65.4380846 1945.94113445 C-66.50949192 1945.78448315 -66.50949192 1945.78448315 -67.60254383 1945.62466717 C-91.54958386 1942.09852571 -114.97259137 1936.37778432 -138.0630846 1929.12863445 C-138.94577015 1928.8558366 -139.8284557 1928.58303875 -140.73788929 1928.3019743 C-164.08188461 1921.04219113 -186.21176823 1911.02166728 -208.0630846 1900.12863445 C-208.85795277 1899.73321453 -209.65282093 1899.33779461 -210.47177601 1898.93039227 C-244.04913914 1882.0784975 -274.96797722 1859.52453894 -302.6958971 1834.27707195 C-304.22013146 1832.89369093 -305.75582967 1831.52278424 -307.3052721 1830.16769695 C-312.99337053 1825.169065 -318.38750233 1819.9101639 -323.7505846 1814.56613445 C-324.46351673 1813.85779461 -325.17644886 1813.14945477 -325.91098499 1812.41965008 C-330.49972428 1807.81758228 -334.82249843 1803.05079986 -339.0630846 1798.12863445 C-340.06092811 1797.00692072 -341.06085741 1795.8870582 -342.0630846 1794.76925945 C-365.27359481 1768.6507128 -384.70972065 1738.95514548 -401.0630846 1708.12863445 C-401.48766956 1707.33537762 -401.91225452 1706.54212078 -402.3497057 1705.72482586 C-435.89716227 1642.56717438 -452.28203591 1570.45010939 -452.19171906 1499.15456963 C-452.19306875 1497.29113445 -452.19485435 1495.42769955 -452.19703129 1493.56426516 C-452.2017286 1488.46942716 -452.2002703 1483.37460719 -452.19775352 1478.27976834 C-452.19611271 1472.72691532 -452.20026769 1467.17406602 -452.20366269 1461.62121421 C-452.20880568 1451.89723323 -452.21023581 1442.17325722 -452.20920658 1432.44927502 C-452.2077513 1418.66614989 -452.21135408 1404.88302924 -452.21634615 1391.09990524 C-452.22647611 1363.08981986 -452.22955161 1335.07973648 -452.23013826 1307.06964948 C-452.23020302 1304.05710866 -452.23027096 1301.04456783 -452.23034167 1298.03202701 C-452.23035868 1297.28440331 -452.23037568 1296.53677961 -452.2303932 1295.76650064 C-452.23080213 1279.17948038 -452.23299356 1262.5924605 -452.23549752 1246.00544043 C-452.23652592 1239.16966366 -452.23751597 1232.33388689 -452.23851377 1225.49811012 C-452.23862436 1224.7427502 -452.23873495 1223.98739029 -452.23884889 1223.20914069 C-452.24517089 1179.93699075 -452.24929823 1136.66484107 -452.24884033 1093.39269066 C-452.24882455 1091.77414737 -452.24880882 1090.15560409 -452.24879312 1088.5370608 C-452.24871974 1081.2299265 -452.24863157 1073.9227922 -452.24853924 1066.6156579 C-452.24849812 1063.35740994 -452.24845797 1060.09916198 -452.24841793 1056.84091403 C-452.24839753 1055.21010411 -452.24837651 1053.5792942 -452.24835487 1051.94848428 C-452.24767485 1000.39777294 -452.25498882 948.84706848 -452.26889515 897.29635906 C-452.2723964 884.31022519 -452.27586597 871.32409131 -452.27915955 858.33795738 C-452.27936242 857.53826093 -452.27956529 856.73856447 -452.27977432 855.91463479 C-452.2859935 831.25017051 -452.28975569 806.58570679 -452.29101753 781.92124176 C-452.29105748 781.14637783 -452.29109743 780.37151389 -452.2911386 779.57316923 C-452.29199205 762.55939188 -452.29225301 745.54561456 -452.29196822 728.53183719 C-452.29187174 722.44329116 -452.29181969 716.35474513 -452.29178949 710.2661991 C-452.29178158 708.75162655 -452.29177137 707.23705401 -452.29175887 705.72248146 C-452.29158287 681.63351099 -452.29726751 657.54454643 -452.30591268 633.45557765 C-452.31458094 609.17879406 -452.31673822 584.90201862 -452.31015136 560.62523414 C-452.30606963 545.57696337 -452.30725431 530.52871405 -452.31754289 515.48044533 C-452.32355951 505.86575128 -452.32222879 496.25107586 -452.3150724 486.63638266 C-452.31120506 481.16815869 -452.31037402 475.69998454 -452.31852975 470.23176416 C-452.35751602 442.27026324 -452.0185886 414.53516361 -447.8755846 386.81613445 C-447.77048573 386.09703899 -447.66538685 385.37794353 -447.55710316 384.6370573 C-440.85082777 339.12789155 -426.97092499 295.54703366 -407.0630846 254.12863445 C-406.66299183 253.28075359 -406.26289906 252.43287273 -405.85068226 251.55929852 C-388.2646381 214.33977054 -364.03422495 180.01825094 -336.3287096 149.6403532 C-335.06281727 148.23695878 -333.8039293 146.82685967 -332.57260609 145.39303875 C-327.82514535 139.87255964 -322.78509868 134.7010599 -317.6255846 129.56613445 C-316.81798695 128.75466961 -316.01038929 127.94320477 -315.17831898 127.10715008 C-310.30160827 122.2382987 -305.28993996 117.61633855 -300.0630846 113.12863445 C-298.94121248 112.13096902 -297.8213556 111.13103198 -296.7037096 110.12863445 C-270.58516295 86.91812425 -240.88959563 67.4819984 -210.0630846 51.12863445 C-209.26982777 50.70404949 -208.47657093 50.27946453 -207.65927601 49.84201336 C-144.09240193 16.07718998 -71.72782789 -0.09119962 0 0 Z " fill="#FE2149" transform="translate(477.06308460235596,24.871365547180176)"/>
<path d="M0 0 C0.33 0 0.66 0 1 0 C1.11578903 0.89976562 1.23157806 1.79953125 1.35087585 2.7265625 C4.80528997 29.47976366 8.53572612 56.18912911 12.36688232 82.89074707 C12.9552755 86.99620182 13.54109017 91.1020227 14.12691402 95.20784473 C17.29011964 117.37066452 20.51047822 139.52424042 23.8046875 161.66796875 C28.17233407 191.03102083 32.42338887 220.41058933 36.65340656 249.79372704 C36.76238445 250.55072046 36.87136233 251.30771387 36.98364258 252.08764648 C37.09273864 252.84546099 37.2018347 253.60327549 37.3142367 254.38405406 C38.20961056 260.60185124 39.1080523 266.8192026 40.00705844 273.03647548 C40.89429728 279.17348157 41.77921027 285.31082035 42.66243809 291.44840497 C43.18136773 295.05415322 43.70114303 298.65977343 44.22341347 302.26503944 C46.45785052 317.69542957 48.54708647 333.12919784 50.35896301 348.61528015 C51.14072645 355.26611041 52.06473089 361.89077105 53.04296875 368.515625 C53.39779425 370.96354054 53.75261175 373.41145723 54.10742188 375.859375 C54.65295554 379.59649146 55.19971439 383.33342677 55.74682617 387.0703125 C56.28593195 390.76000262 56.82085633 394.4502816 57.35546875 398.140625 C57.60383736 399.82167328 57.60383736 399.82167328 57.85722351 401.53668213 C58.00770645 402.57677429 58.15818939 403.61686646 58.31323242 404.68847656 C58.44630295 405.59680237 58.57937347 406.50512817 58.71647644 407.440979 C58.9982073 409.98381945 59.05060533 412.44393615 59 415 C59.66 415 60.32 415 61 415 C61.04640121 414.10503311 61.09280243 413.21006622 61.14060974 412.28797913 C61.69953333 402.71541168 62.81255904 393.29211169 64.22265625 383.80859375 C64.44642782 382.27420566 64.66969612 380.7397441 64.89250183 379.20521545 C65.48626792 375.12583242 66.08713782 371.0475259 66.68940735 366.96939087 C67.31983315 362.69117919 67.9431279 358.41192811 68.56738281 354.1328125 C70.7741143 339.02367511 73.00655764 323.91838991 75.26171875 308.81640625 C75.43127075 307.68086304 75.60082275 306.54531982 75.7755127 305.37536621 C76.02367737 303.71350281 76.02367737 303.71350281 76.27685547 302.01806641 C76.60124296 299.8453785 76.92562453 297.6726897 77.25 295.5 C77.41099182 294.42256531 77.57198364 293.34513062 77.737854 292.23504639 C80.26436754 275.29873081 82.60626154 258.34267148 84.86196899 241.36834717 C87.29002986 223.10653487 89.82852567 204.8617461 92.4375 186.625 C92.53251926 185.96041275 92.62753853 185.2958255 92.72543716 184.61109924 C95.61732523 164.39014546 98.60140825 144.18359035 101.62322998 123.98165894 C104.39147032 105.44277011 106.94365491 86.88017611 109.41088867 68.29907227 C112.44071131 45.50892884 115.70737366 22.75345457 119 0 C120.54368332 2.80637707 121.34592209 5.18282136 121.7902832 8.34912109 C121.91413895 9.20718353 122.03799469 10.06524597 122.16560364 10.9493103 C122.29271225 11.88127228 122.41982086 12.81323425 122.55078125 13.7734375 C122.6914653 14.76526031 122.83214935 15.75708313 122.97709656 16.77896118 C123.42877764 19.97675927 123.87059338 23.17583823 124.3125 26.375 C124.59770503 28.39591842 124.88350772 30.41675259 125.16992188 32.4375 C126.51499497 41.98642409 127.81908011 51.53992277 129.04638672 61.10473633 C131.51959953 80.3369812 134.20387297 99.53130683 137.03125 118.71484375 C137.30112512 120.54629314 137.30112512 120.54629314 137.57645226 122.41474152 C139.06847462 132.53185567 140.56707316 142.647994 142.06756592 152.76385498 C143.37212478 161.5594058 144.67347538 170.35542054 145.96875 179.15234375 C146.1497588 180.38159828 146.33076759 181.61085281 146.51726151 182.87735748 C148.6274471 197.23983235 150.64798789 211.60484294 152.4296875 226.01171875 C154.55237324 243.16601204 157.02698325 260.26638449 159.5390625 277.3671875 C159.64144258 278.06448542 159.74382265 278.76178334 159.84930515 279.4802115 C161.32751918 289.54644824 162.81291186 299.61162177 164.30014801 309.67652893 C165.806427 319.87043531 167.31152112 330.0645108 168.80946004 340.25964653 C169.30989157 343.66451287 169.81164053 347.06917232 170.3169136 350.47332382 C172.55134232 365.53834312 174.63219608 380.60248705 176.37802124 395.73245239 C177.12438873 402.17391948 178.02517148 408.5890689 179 415 C183.99950744 381.53305622 188.90935357 348.05289451 193.79806519 314.5696106 C194.4702354 309.96631859 195.14355928 305.36319768 195.81790161 300.76022339 C196.62996103 295.21661806 197.43946987 289.67264553 198.24723053 284.12841225 C198.54682321 282.07475929 198.84722352 280.02122393 199.14855194 277.96782494 C201.03536691 265.10472318 202.74992593 252.22989049 204.33833313 239.3265686 C205.08063584 233.30963 205.89610174 227.30508325 206.76171875 221.3046875 C206.91339508 220.24172958 207.06507141 219.17877167 207.22134399 218.08360291 C207.70776903 214.680402 208.19746264 211.27768247 208.6875 207.875 C209.03478549 205.45272328 209.38203406 203.03044127 209.72924805 200.6081543 C212.52659931 181.13162304 215.39489535 161.66567744 218.29760742 142.20458984 C219.20259669 136.1370105 220.10408676 130.06892642 221 124 C221.13259216 123.10198669 221.26518433 122.20397339 221.40179443 121.27874756 C222.86116456 111.35095204 224.21564894 101.4169331 225.4375 91.45703125 C226.96077841 79.05091955 228.69978559 66.6790152 230.47949219 54.30737305 C231.00202852 50.67339264 231.52077672 47.03888569 232.0390625 43.40429688 C233.92041537 30.2518874 235.87530143 17.11538604 238 4 C238.66 4 239.32 4 240 4 C244.21052123 31.82801775 248.26292149 59.6668671 252 87.5625 C254.8396516 108.75345145 257.84028135 129.9176851 260.953125 151.0703125 C261.21601067 152.85709191 261.21601067 152.85709191 261.48420715 154.67996788 C263.25288353 166.6945658 265.0290828 178.70802995 266.81599808 190.71992874 C272.90439736 231.66826989 272.90439736 231.66826989 275.375 251.59375 C277.55103398 269.13411404 280.06336451 286.62359104 282.609375 304.11328125 C282.71299378 304.82537176 282.81661257 305.53746227 282.92337132 306.27113128 C284.30857374 315.78864261 285.69971604 325.30528197 287.0927124 334.82165527 C288.73109566 346.01458644 290.3666773 357.20792565 291.99763703 368.401941 C292.60484914 372.56840377 293.21434772 376.73452318 293.82577562 380.90036929 C294.29281291 384.08607675 294.75699123 387.27220116 295.22167969 390.45825195 C295.47099998 392.14983681 295.47099998 392.14983681 295.72535706 393.87559509 C296.65030119 400.23919382 297.42705935 406.59482643 298 413 C299.50228369 411.49771631 299.39719834 410.00166847 299.70075989 407.912323 C299.83098038 407.03019135 299.96120087 406.14805969 300.09536743 405.23919678 C300.23509979 404.26291321 300.37483215 403.28662964 300.51879883 402.28076172 C300.74346581 400.74589615 300.74346581 400.74589615 300.97267151 399.18002319 C301.47158622 395.76383181 301.96440123 392.3467904 302.45703125 388.9296875 C302.80444952 386.53911132 303.15216634 384.14857851 303.50016785 381.75808716 C304.23327806 376.7158905 304.96352147 371.67328945 305.69165039 366.63037109 C306.61173402 360.25877444 307.53752803 353.88802513 308.46529198 347.51754284 C311.84692301 324.28781751 315.20344203 301.06188719 318.13354492 277.77050781 C319.68804436 265.47235302 321.48495799 253.20682357 323.25 240.9375 C323.44459031 239.57947364 323.63906681 238.22143096 323.83343506 236.8633728 C326.37430228 219.11143533 328.97550717 201.36920795 331.62826538 183.63360596 C334.52870382 164.24163488 337.27659629 144.83720357 339.85739136 125.40011597 C342.27188441 107.22649922 344.80075073 89.07085768 347.39500809 70.92219162 C347.68134331 68.91809155 347.96707818 66.91390675 348.25265503 64.90969849 C350.30975945 50.48789582 352.40086705 36.07423563 354.70939636 21.69015503 C355.62919773 15.85523139 356.29529048 10.08442232 356.64897156 4.18600464 C357 2 357 2 359 0 C360.08984637 7.5574991 361.17701675 15.11537873 362.26130199 22.67367744 C362.76555948 26.18822042 363.27054243 29.70265495 363.77758789 33.21679688 C367.52001567 59.16089815 367.52001567 59.16089815 369.10009766 71.43676758 C369.19169946 72.14835116 369.28330126 72.85993475 369.37767887 73.59308147 C369.51718039 74.67735031 369.51718039 74.67735031 369.65950012 75.78352356 C371.99923461 93.96639615 374.58138026 112.1086054 377.25 130.24609375 C377.53650893 132.19389488 377.53650893 132.19389488 377.82880592 134.18104553 C379.41524992 144.96111841 381.0087842 155.74014359 382.60400391 166.5189209 C383.99018096 175.88569863 385.37304535 185.25295552 386.75 194.62109375 C386.94193624 195.92684042 387.13387249 197.23258709 387.33162498 198.57790184 C389.51135156 213.43733983 391.61577823 228.29791981 393.45703125 243.203125 C395.57900865 260.37615651 398.06000161 277.49419343 400.57421875 294.61328125 C400.67727656 295.3153233 400.78033437 296.01736536 400.88651514 296.74068141 C402.37236792 306.86060984 403.86550082 316.97946023 405.36036682 327.09806061 C406.87795944 337.37099255 408.39410187 347.64413358 409.90354854 357.918266 C410.4079338 361.35028473 410.91362521 364.78209935 411.42264366 368.21343422 C415.2685453 394.15625029 415.2685453 394.15625029 416.41398907 405.8057375 C416.70448492 408.71150473 417.07175816 411.21527448 418 414 C420.16770836 399.16002799 422.33254737 384.31963941 424.49413776 369.47877502 C425.49827501 362.5851039 426.50328766 355.69156269 427.51049805 348.79833984 C428.48533352 342.12666849 429.45754843 335.45461918 430.42827415 328.78234863 C430.79615423 326.2565892 431.16486352 323.73095038 431.53447914 321.20544434 C433.62260468 306.93348582 435.58102156 292.65681789 437.33674622 278.34014893 C438.20373935 271.2947683 439.18807038 264.26832904 440.19921875 257.2421875 C440.39750995 255.85398983 440.59564514 254.46576986 440.79364014 253.07752991 C441.31488671 249.42728775 441.83893194 245.77745322 442.36378098 242.12772751 C442.6919248 239.84420829 443.01920614 237.56056701 443.34622192 235.27688599 C446.77853012 211.31031082 450.28327352 187.35505815 453.8598175 163.4095459 C456.17118679 147.92130483 458.47688298 132.43969398 460.375 116.89453125 C462.25260941 101.5692894 464.47075975 86.29228972 466.66674805 71.01019287 C467.11218382 67.90560346 467.5549933 64.80064173 467.99783611 61.69568157 C472.09957674 32.94872514 472.09957674 32.94872514 474.40356445 18.78515625 C475.38775214 12.53921034 476.20306511 6.27234633 477 0 C477.33 0 477.66 0 478 0 C479.12626494 7.39056238 480.24812058 14.78178392 481.36492634 22.17378139 C481.88409605 25.60924614 482.40457003 29.04450072 482.9284668 32.47924805 C485.13098406 46.92572063 487.23505702 61.367537 488.91555786 75.88616943 C490.28894371 87.68411747 491.98817939 99.43282682 493.6875 111.1875 C494.03558729 113.60960398 494.38356671 116.03172346 494.73144531 118.45385742 C497.65680516 138.78108221 500.65269744 159.09791767 503.67765808 179.41053772 C503.98547685 181.4776542 504.29294336 183.54482317 504.60005188 185.61204529 C505.39716706 190.97368094 506.20188124 196.33402907 507.01757812 201.69287109 C508.82978886 213.66212551 510.48161789 225.62903473 511.88050842 237.65368652 C513.27233536 249.52833891 514.97696695 261.35526727 516.6875 273.1875 C517.03558729 275.60960398 517.38356671 278.03172346 517.73144531 280.45385742 C520.80605669 301.81817488 523.96090627 323.17063543 527.140625 344.51953125 C527.29128418 345.53190353 527.44194336 346.54427582 527.59716797 347.58732605 C528.41607922 353.08817262 529.23821382 358.58851809 530.0637207 364.08837891 C533.43464874 386.60500412 533.43464874 386.60500412 534.6875 397.75 C534.91988378 399.76570457 535.15293691 401.7813321 535.38671875 403.796875 C535.48170654 404.63573242 535.57669434 405.47458984 535.67456055 406.33886719 C536.0692645 409.5663789 536.53693499 412.78165767 537 416 C538.906898 402.985396 540.81103782 389.97039155 542.71183491 376.95489502 C543.59491198 370.90870253 544.47887323 364.8626423 545.36499023 358.81689453 C546.22307178 352.96218309 547.07865451 347.10711106 547.93263817 341.25180054 C548.25584492 339.03864014 548.57989212 336.82560229 548.90487099 334.61270142 C550.87244208 321.21014565 552.68230339 307.79884461 554.33479309 294.3538208 C555.14067209 287.81568746 556.04113714 281.29378401 556.98046875 274.7734375 C557.24127731 272.94594215 557.24127731 272.94594215 557.50735474 271.08152771 C557.96979309 267.84593327 558.43419187 264.61062955 558.89981461 261.3754921 C559.1923734 259.3411116 559.4840596 257.30660776 559.77548218 255.27206421 C563.04843912 232.42483075 566.41148366 209.59138028 569.80709839 186.76205444 C571.32570503 176.55209556 572.84194275 166.34200887 574.3125 156.125 C574.44760986 155.1966333 574.58271973 154.2682666 574.72192383 153.31176758 C575.53855075 147.59130361 576.26675828 141.86238586 576.97032166 136.12715149 C578.78370628 121.37528969 580.84338403 106.66357991 582.96032715 91.95251083 C583.25424787 89.90795112 583.54719987 87.86325481 583.83984375 85.81851196 C586.77223047 65.33102337 589.77108764 44.8538944 592.87988281 24.39233398 C593.08535736 23.03117462 593.08535736 23.03117462 593.29498291 21.64251709 C593.54428641 19.99143865 593.79548953 18.34064506 594.04925537 16.69024658 C594.88497458 11.14221375 595.48423355 5.58648196 596 0 C596.66 0.33 597.32 0.66 598 1 C598.55270321 3.80872144 598.97595496 6.5509721 599.33203125 9.38671875 C599.45051926 10.27180618 599.56900726 11.15689362 599.69108582 12.06880188 C600.07345319 14.94064357 600.44317889 17.81395444 600.8125 20.6875 C601.04929763 22.4812299 601.28692086 24.27485101 601.52539062 26.06835938 C602.62417025 34.36655417 603.70287885 42.66728906 604.76243687 50.97058296 C608.60709199 81.0437527 613.07139975 111.02170388 617.53112793 141.00878906 C624.87794632 190.41254964 624.87794632 190.41254964 627.4375 211.03125 C629.4930674 227.58509773 631.8431761 244.09144973 634.25 260.59765625 C634.39337107 261.58139225 634.39337107 261.58139225 634.53963852 262.58500171 C635.92056809 272.05844068 637.30848967 281.53085129 638.69793701 291.00304413 C640.28949366 301.85422688 641.87853407 312.70577579 643.46161246 323.55819893 C643.74886797 325.52739596 644.03628079 327.49657004 644.32369423 329.46574402 C646.95604797 347.52486117 649.47810923 365.59336201 651.78902912 383.69645023 C652.99842948 393.16368412 654.39718736 402.59162013 656 412 C657.55460945 410.44539055 657.42014492 408.75869255 657.72094727 406.6027832 C657.85553345 405.65383682 657.99011963 404.70489044 658.12878418 403.72718811 C658.27319946 402.67897385 658.41761475 401.63075958 658.56640625 400.55078125 C658.7207312 399.45668442 658.87505615 398.36258759 659.03405762 397.2353363 C659.37001598 394.85135215 659.70412986 392.46710753 660.03665161 390.0826416 C660.9325527 383.65935676 661.84147849 377.23791625 662.75 370.81640625 C662.84320086 370.15656109 662.93640171 369.49671593 663.03242683 368.81687546 C664.81139232 356.2264689 666.67689882 343.64971002 668.56390381 331.07507324 C671.33585818 312.58926955 673.97621502 294.09225185 676.4375 275.5625 C679.00526706 256.23562279 681.6763955 236.92513689 684.4375 217.625 C684.53251926 216.96041275 684.62753853 216.2958255 684.72543716 215.61109924 C687.61799769 195.38544345 690.60328012 175.17427107 693.62524414 154.96755981 C696.18781826 137.80230352 698.57180482 120.61863907 700.8553772 103.41421509 C703.30573833 84.96329358 705.87779568 66.53162342 708.51158524 48.10615158 C708.80935474 46.02201415 709.10651744 43.937791 709.40353394 41.85354614 C709.96092272 37.94372758 710.52117678 34.03432303 711.08203125 30.125 C711.24633636 28.97406357 711.41064148 27.82312714 711.57992554 26.63731384 C712.04302739 23.42326397 712.51962103 20.211508 713 17 C713.16285492 15.86272461 713.32570984 14.72544922 713.49349976 13.55371094 C713.74167953 11.91450684 713.74167953 11.91450684 713.99487305 10.2421875 C714.13998825 9.25847168 714.28510345 8.27475586 714.43461609 7.26123047 C714.62119278 6.51502441 714.80776947 5.76881836 715 5 C715.66 4.67 716.32 4.34 717 4 C719.83211623 21.0433104 722.30868556 38.11867183 724.60055733 55.24237823 C725.57059947 62.48771052 726.55464514 69.73115217 727.53857422 76.97460938 C727.63985079 77.72064124 727.74112737 78.4666731 727.84547293 79.23531199 C730.08373478 95.71294582 732.40494907 112.17844662 734.75390625 128.640625 C734.90180705 129.67727389 734.90180705 129.67727389 735.05269575 130.73486519 C736.2515705 139.13578123 737.45413152 147.53616718 738.65816915 155.93634462 C739.36471218 160.86668686 740.06946336 165.79728285 740.77319336 170.72802734 C744.94045414 199.9253626 749.14152745 229.11688448 753.48198128 258.2890892 C757.28057952 283.81996928 761.00538919 309.36135934 764.69680119 334.90792847 C765.81427445 342.64095178 766.93569041 350.37338277 768.0619235 358.10513532 C768.8728228 363.67431153 769.67940093 369.24410329 770.48276949 374.81437075 C770.95604043 378.09506226 771.43171169 381.37537407 771.91099548 384.65519333 C772.43748972 388.26076122 772.95690461 391.8672822 773.47460938 395.47412109 C773.63035431 396.52936478 773.78609924 397.58460846 773.94656372 398.67182922 C774.72902917 404.17970214 775.16171853 409.43681023 775 415 C775.66 415 776.32 415 777 415 C777.07565186 413.93120605 777.07565186 413.93120605 777.15283203 412.84082031 C777.74482828 405.08579517 778.72242087 397.43972643 779.875 389.75 C781.15714313 381.15451244 782.3138054 372.55528032 783.37109375 363.9296875 C785.03930853 350.38646249 786.95593524 336.88152719 788.89981461 323.3754921 C789.1923734 321.3411116 789.4840596 319.30660776 789.77548218 317.27206421 C793.04843912 294.42483075 796.41148366 271.59138028 799.80709839 248.76205444 C801.32570503 238.55209556 802.84194275 228.34200887 804.3125 218.125 C804.44760986 217.1966333 804.58271973 216.2682666 804.72192383 215.31176758 C805.53960132 209.58394437 806.26874184 203.84762301 806.97348022 198.1050415 C808.76894143 183.50310139 810.80384371 168.9405432 812.89941025 154.37892914 C813.19286115 152.33770828 813.48533107 150.2963491 813.77749634 148.25494385 C816.67541723 128.00809939 819.65877639 107.77489469 822.68548584 87.546875 C825.29866893 70.055444 827.73353542 52.54567904 830.01049805 35.00732422 C831.53136064 23.31508452 833.21057481 11.65420509 835 0 C835.33 0 835.66 0 836 0 C844.36734511 56.21897162 844.36734511 56.21897162 846.6875 72.5 C846.85807419 73.69689957 847.02864838 74.89379913 847.20439148 76.12696838 C848.27313541 83.6676629 849.29487185 91.21218067 850.25874901 98.76713753 C852.71040663 117.95826848 855.43347991 137.1052835 858.25 156.24609375 C858.44077936 157.54305302 858.63155872 158.84001228 858.82811928 160.17627335 C860.41479987 170.95793584 862.00854892 181.73855377 863.60400391 192.5189209 C871.97290189 249.0698376 871.97290189 249.0698376 874.75523949 271.53929138 C876.76322999 287.70126469 879.08507197 303.81711273 881.42578125 319.93359375 C881.52465055 320.61437099 881.62351985 321.29514823 881.72538519 321.99655509 C882.9381893 330.34384073 884.15657589 338.69030752 885.37701976 347.03647918 C886.4318114 354.25077968 887.48264551 361.46565521 888.53325522 368.68056571 C890.68464246 383.45432366 892.84065981 398.22740219 895 413 C896.67797456 411.32202544 896.51708203 409.12965688 896.84588623 406.82723999 C897.08953415 405.1427475 897.08953415 405.1427475 897.33810425 403.42422485 C897.60145065 401.5578688 897.60145065 401.5578688 897.87011719 399.65380859 C898.15089615 397.69930786 898.15089615 397.69930786 898.43734741 395.70532227 C898.95389768 392.10838469 899.4651278 388.5107087 899.97531796 384.91286421 C900.51481408 381.11369558 901.05864828 377.31514771 901.60186768 373.51651001 C902.51939835 367.09556725 903.43356814 360.67415275 904.34570312 354.25244141 C905.38499728 346.93571804 906.42902473 339.61968344 907.47592044 332.30404413 C908.49358923 325.19199443 909.50796882 318.07947907 910.52091217 310.96675491 C910.94565916 307.98447909 911.37137789 305.00234479 911.79799652 302.02033615 C913.99341816 286.66578498 916.1088818 271.30589306 918.04889667 255.91683567 C921.00020687 232.51424139 924.33706728 209.17051341 927.70090842 185.82413125 C928.55209224 179.91251483 929.40006275 174.00043732 930.24848938 168.08842468 C931.66765587 158.20262437 933.08904194 148.31714534 934.51196289 138.43188477 C936.15227161 127.03628635 937.78953834 115.64025412 939.42511052 104.24397498 C941.18013012 92.0155814 942.93722105 79.78748612 944.69498086 67.55948615 C945.19702566 64.0660417 945.69869917 60.57254409 946.20029259 57.07903481 C946.98784032 51.59469107 947.77679138 46.11055092 948.56680679 40.62656212 C948.85508414 38.62400265 949.14291221 36.62137843 949.43024254 34.61868286 C950.17010434 29.46294804 950.91703229 24.30841033 951.68162513 19.15628076 C951.97954512 17.13853627 952.26952058 15.11962326 952.55890846 13.10063744 C952.72495771 12.00376421 952.89100697 10.90689098 953.06208801 9.77677917 C953.19749906 8.86025668 953.3329101 7.94373419 953.47242451 6.99943829 C953.73357438 6.00971633 953.73357438 6.00971633 954 5 C954.66 4.67 955.32 4.34 956 4 C958.26499516 19.36299878 960.52568453 34.72662612 962.78166485 50.09095097 C963.829972 57.2297833 964.87954908 64.36842408 965.93237305 71.5065918 C970.27766955 100.97233166 974.5622258 130.4350838 978.24021912 159.99310493 C979.62100849 171.03596572 981.21939662 182.04868252 982.8125 193.0625 C983.15295194 195.43178616 983.49328048 197.80109005 983.83349609 200.17041016 C986.3819161 217.88032753 988.99952006 235.57987172 991.63092041 253.27761841 C995.85035107 281.65637818 999.99688629 310.0387029 1003.66427612 338.49453735 C1005.68158038 354.08471084 1007.95183368 369.63654894 1010.25 385.1875 C1010.42875671 386.40272339 1010.60751343 387.61794678 1010.79168701 388.86999512 C1011.3005906 392.3239768 1011.81355569 395.7773271 1012.328125 399.23046875 C1012.48207733 400.27549057 1012.63602966 401.32051239 1012.79464722 402.39720154 C1012.93879059 403.3569136 1013.08293396 404.31662567 1013.23144531 405.30541992 C1013.35626282 406.1434465 1013.48108032 406.98147308 1013.60968018 407.84489441 C1013.97849547 410.17231338 1013.97849547 410.17231338 1015 413 C1017.03735467 399.07271948 1019.07177478 385.14501286 1021.10298634 371.21683502 C1022.04661036 364.74690567 1022.99111264 358.27710725 1023.93774414 351.80761719 C1024.85415545 345.54441889 1025.76810043 339.28086489 1026.68045616 333.01707458 C1027.02600009 330.64761476 1027.37237851 328.27827645 1027.71967506 325.90907288 C1029.74969504 312.05616259 1031.63681962 298.19657986 1033.34248352 284.29998779 C1034.14481767 277.77967572 1035.04372152 271.27584462 1035.98046875 264.7734375 C1036.15434113 263.55510727 1036.3282135 262.33677704 1036.50735474 261.08152771 C1036.96979309 257.84593327 1037.43419187 254.61062955 1037.89981461 251.3754921 C1038.1923734 249.3411116 1038.4840596 247.30660776 1038.77548218 245.27206421 C1042.04843912 222.42483075 1045.41148366 199.59138028 1048.80709839 176.76205444 C1050.32570503 166.55209556 1051.84194275 156.34200887 1053.3125 146.125 C1053.44760986 145.1966333 1053.58271973 144.2682666 1053.72192383 143.31176758 C1054.53644964 137.60602192 1055.26279291 131.89191184 1055.96400452 126.17137146 C1057.81257182 111.12477397 1059.92131956 96.11872745 1062.08013916 81.11402893 C1062.37907064 79.03417805 1062.6770014 76.95418616 1062.97460938 74.87414551 C1065.42677888 57.73650635 1067.89457655 40.60144457 1070.59130859 23.50024414 C1071.54117458 17.40954354 1072.28995839 11.38938674 1072.65625 5.23339844 C1073 3 1073 3 1075 0 C1075.11578903 0.86979996 1075.23157806 1.73959991 1075.35087585 2.63575745 C1078.73627111 28.00872482 1082.29128408 53.3557172 1085.91918945 78.69506836 C1086.65698876 83.84839789 1087.39229023 89.00208006 1088.12688923 94.15586662 C1091.32185278 116.56292839 1094.57488021 138.96046075 1097.90625 161.34765625 C1101.89567282 188.16124769 1105.76200923 214.99183153 1109.59204102 241.82861328 C1110.32610695 246.97174885 1111.06182828 252.11464325 1111.79907227 257.25732422 C1115.40805495 282.43271499 1119.00468043 307.60629689 1122.27145386 332.8286438 C1124.35969008 348.92631201 1126.6633401 364.99230218 1128.97894287 381.05859375 C1129.55077433 385.02970951 1130.11997253 389.00120281 1130.68945312 392.97265625 C1131.79052589 400.64878988 1132.89428842 408.32453304 1134 416 C1137.15991044 396.48845513 1137.15991044 396.48845513 1140.0625 376.9375 C1140.21009766 375.91591797 1140.35769531 374.89433594 1140.50976562 373.84179688 C1141.40399093 367.55958114 1142.21856188 361.27171457 1142.99160767 354.97361755 C1144.7803134 340.41587431 1146.81001103 325.89772559 1148.89920807 311.38034439 C1149.19306328 309.3363021 1149.48593533 307.29212118 1149.77850342 305.24789429 C1152.33800856 287.36538424 1154.95670896 269.49256142 1157.62927246 251.6265564 C1160.37224981 233.28910099 1162.99568941 214.94257524 1165.4375 196.5625 C1168.00538154 177.23563752 1170.67639263 157.92513761 1173.4375 138.625 C1173.57980797 137.62966562 1173.57980797 137.62966562 1173.72499084 136.61422348 C1176.63735901 116.25011045 1179.63328573 95.89892186 1182.68557739 75.55529785 C1184.47138737 63.64222426 1186.19801692 51.7257168 1187.76171875 39.78125 C1187.90024765 38.72455109 1188.03877655 37.66785217 1188.1815033 36.57913208 C1188.83309218 31.58796272 1189.47356794 26.59566406 1190.09838867 21.60107422 C1190.32333351 19.84601949 1190.54834571 18.09097339 1190.7734375 16.3359375 C1190.8689238 15.54392944 1190.9644101 14.75192139 1191.06278992 13.93591309 C1191.5371619 10.27805384 1192.02660908 7.16097361 1194 4 C1195.76095567 8.74965621 1196.64784801 13.44095556 1197.33203125 18.4375 C1197.45051926 19.27112061 1197.56900726 20.10474121 1197.69108582 20.96362305 C1198.070135 23.64170644 1198.44125675 26.32082476 1198.8125 29 C1199.04965704 30.67454625 1199.28728473 32.34902591 1199.52539062 34.0234375 C1200.74635228 42.66931198 1201.9171782 51.32121041 1203.03930664 59.98046875 C1206.5631348 87.1468131 1210.40571009 114.26425286 1214.29400635 141.38061523 C1214.97924595 146.16398294 1215.66190431 150.94771749 1216.34457111 155.73145294 C1219.82177116 180.09105499 1223.34624238 204.44281554 1226.96875 228.78125 C1230.93792835 255.45022522 1234.78263852 282.13638699 1238.59204102 308.82861328 C1239.32610695 313.97174885 1240.06182828 319.11464325 1240.79907227 324.25732422 C1248.41113146 377.35631182 1248.41113146 377.35631182 1251.55778503 402.20471191 C1251.65031996 402.92781052 1251.74285488 403.65090912 1251.83819389 404.3959198 C1252.08110202 406.2967905 1252.32041149 408.19812014 1252.55940247 410.0994873 C1252.92452799 413.05719654 1252.92452799 413.05719654 1254 416 C1254.20663017 414.12467842 1254.20663017 414.12467842 1254.41743469 412.21147156 C1256.90951804 390.28691209 1260.15373379 368.46465592 1263.30053115 346.62677217 C1264.13821515 340.80946202 1264.97273713 334.99169813 1265.80769348 329.17399597 C1267.21367701 319.3807716 1268.62184369 309.5878632 1270.03149414 299.79516602 C1271.63851175 288.63129227 1273.24276752 277.46702467 1274.84531993 266.30250913 C1276.57728524 254.23651519 1278.31113126 242.17079203 1280.04559922 230.10515761 C1280.53221695 226.71934077 1281.01853342 223.33348077 1281.50478172 219.94761086 C1285.3542298 193.14849363 1289.26694794 166.35955498 1293.24526691 139.57925797 C1295.53640764 124.15371437 1297.79502634 108.72439843 1299.9921875 93.28515625 C1300.31216219 91.04412885 1300.63224424 88.80311677 1300.9524231 86.56211853 C1301.6032703 82.00467123 1302.25322094 77.44709752 1302.90234375 72.8894043 C1303.72771847 67.09439287 1304.55504965 61.29966267 1305.38296318 55.50501347 C1306.0355519 50.93661976 1306.68741006 46.36812205 1307.33902359 41.79958916 C1307.64422603 39.66003556 1307.94958682 37.52050455 1308.25512314 35.38099861 C1309.89013858 23.92741005 1311.50124769 12.47231245 1313 1 C1313.33 1 1313.66 1 1314 1 C1322.7588728 60.91249177 1331.43399895 120.83644037 1339.99609375 180.77734375 C1340.10214009 181.51972386 1340.20818643 182.26210398 1340.31744629 183.02698046 C1343.03336533 202.04027969 1345.74660435 221.05396103 1348.45883429 240.06778681 C1350.00862063 250.93224521 1351.55911991 261.79660169 1353.11010742 272.66088867 C1353.22029504 273.43272745 1353.33048266 274.20456623 1353.4440093 274.99979406 C1353.99881115 278.88602473 1354.55362554 282.7722536 1355.10844696 286.65848148 C1356.20460341 294.33648616 1357.30069119 302.01450064 1358.39674377 309.69252014 C1358.5035384 310.440632 1358.61033303 311.18874386 1358.72036386 311.95952577 C1360.14848155 321.96379756 1361.57629718 331.96811241 1363.00374788 341.97247939 C1363.29130121 343.98780164 1363.57886547 346.00312234 1363.86643171 348.01844275 C1364.79885452 354.55314218 1365.73111263 361.08786506 1366.66309547 367.62262726 C1368.49388687 380.45775326 1370.32761624 393.29244848 1372.16693453 406.12635482 C1372.78494253 410.43929917 1373.40240073 414.75232227 1374.01987102 419.06534363 C1374.50954917 422.48527441 1374.99963611 425.9051455 1375.4907397 429.3248719 C1377.55261092 443.686621 1379.57882559 458.04933488 1381.41796875 472.44140625 C1383.62484336 489.57122307 1386.06936326 506.665744 1388.52828455 523.76082945 C1388.86190731 526.08029163 1389.19530462 528.39978613 1389.52865219 530.71928787 C1391.59021686 545.06193777 1393.65699471 559.40383418 1395.72973633 573.74487305 C1396.76434726 580.90347601 1397.79542708 588.06257874 1398.82269257 595.22223955 C1399.46681901 599.71010229 1400.11527014 604.19731086 1400.76707327 608.68406475 C1401.26314078 612.10773977 1401.75277714 615.53232889 1402.2434082 618.95678711 C1402.42256775 620.18102386 1402.60172729 621.40526062 1402.78631592 622.66659546 C1403.56792558 628.16352167 1404.22710701 633.44618418 1404 639 C1390.13645985 641.33530724 1376.25322919 643.43710325 1362.3125 645.25 C1361.64096893 645.33858276 1360.96943787 645.42716553 1360.27755737 645.51843262 C1358.34837654 645.77193398 1356.41833931 646.01889132 1354.48828125 646.265625 C1352.82599487 646.47880371 1352.82599487 646.47880371 1351.13012695 646.69628906 C1348.09930138 646.99036495 1345.04505899 647 1342 647 C1332.76 582.65 1323.52 518.3 1314 452 C1312.39725647 453.60274353 1312.53531467 455.48392821 1312.21658325 457.69750977 C1311.99384232 459.22303215 1311.99384232 459.22303215 1311.76660156 460.77937317 C1311.52659424 462.46832954 1311.52659424 462.46832954 1311.28173828 464.19140625 C1311.11084686 465.37059128 1310.93995544 466.54977631 1310.7638855 467.76469421 C1310.29368085 471.01577493 1309.82727358 474.26735724 1309.3626771 477.51924133 C1308.87293461 480.94192173 1308.3788947 484.36398205 1307.88546753 487.78613281 C1307.05369512 493.55964126 1306.22529721 499.33362634 1305.39892578 505.10791016 C1304.45286279 511.71829542 1303.50189744 518.32796009 1302.5480634 524.9372282 C1301.62425075 531.33917238 1300.70385229 537.74160313 1299.78496933 544.14425659 C1299.39772102 546.84226082 1299.00940713 549.54010815 1298.62015152 552.23782349 C1296.6375312 565.99786929 1294.75284845 579.75593864 1293.14151478 593.56453419 C1291.68089879 605.94345005 1289.89625862 618.27584391 1288.12261796 630.61311316 C1287.62130714 634.10417222 1287.12310411 637.59567517 1286.62443542 641.08711243 C1285.78335481 646.97281927 1284.94014001 652.85821704 1284.09545898 658.7434082 C1283.24715378 664.65393762 1282.40069123 670.56472643 1281.55639648 676.47583008 C1277.02801015 708.17965008 1272.45046209 739.8748939 1267.73504639 771.55154419 C1264.93384886 790.37777682 1262.2293059 809.21682731 1259.5625 828.0625 C1258.81156484 833.36706528 1258.05949499 838.67146644 1257.30518913 843.97555351 C1257.0131982 846.03220788 1256.72290929 848.08909727 1256.43275452 850.14601135 C1256.17128883 851.9861808 1256.17128883 851.9861808 1255.90454102 853.86352539 C1255.75324234 854.93308975 1255.60194366 856.00265411 1255.44606018 857.10462952 C1255.03752708 859.75641227 1254.55015269 862.37436161 1254 865 C1253.67 865 1253.34 865 1253 865 C1252.85191328 863.93397962 1252.70382656 862.86795923 1252.55125237 861.7696352 C1248.75478729 834.45212313 1244.90097092 807.14318985 1241.00107431 779.84026313 C1240.56094431 776.75862596 1240.1210155 773.67696014 1239.68114853 770.59528542 C1238.12943742 759.72414997 1236.57703078 748.85311413 1235.02392578 737.98217773 C1233.76052435 729.13890026 1232.49818723 720.29547163 1231.23681641 711.4519043 C1222.62988428 651.00143188 1222.62988428 651.00143188 1213.75784302 590.5894928 C1209.90714489 564.78665194 1206.24721069 538.95627389 1202.57012939 513.12823486 C1201.69535161 506.98479087 1200.81886083 500.84159114 1199.94253159 494.69836831 C1197.9598517 480.79917365 1195.97917435 466.89969424 1194 453 C1189.13180509 484.86315166 1184.28603243 516.72973788 1179.63668823 548.62567139 C1179.25976062 551.21001449 1178.88180344 553.79420768 1178.50271606 556.37823486 C1176.5457169 569.73199213 1174.71295375 583.08461706 1173.15008545 596.49032593 C1171.68462757 608.92103385 1169.88942815 621.30419149 1168.10038757 633.6917572 C1167.70707279 636.41836027 1167.31599494 639.14528276 1166.92477226 641.87218666 C1163.92739658 662.7575911 1160.84992933 683.63089275 1157.74609375 704.50073242 C1153.13619027 735.31319515 1153.13619027 735.31319515 1148.9375 766.18359375 C1148.84705414 766.88754272 1148.75660828 767.5914917 1148.66342163 768.31677246 C1148.57130402 769.03385376 1148.4791864 769.75093506 1148.38427734 770.48974609 C1148.19373614 771.97233732 1148.00314322 773.45492189 1147.8125 774.9375 C1147.71882141 775.66704895 1147.62514282 776.3965979 1147.52862549 777.14825439 C1143.78391319 806.15587205 1139.30347448 835.07116205 1135 864 C1132.61695293 860.42542939 1132.23967925 857.24569921 1131.65893555 853.0925293 C1131.53987854 852.28506256 1131.42082153 851.47759583 1131.29815674 850.6456604 C1130.90358824 847.95620428 1130.52006459 845.26529566 1130.13671875 842.57421875 C1129.86068588 840.67405204 1129.58404818 838.77397311 1129.30683899 836.87397766 C1128.72309335 832.86203682 1128.14437926 828.84941388 1127.56958008 824.83618164 C1126.85026936 819.81432347 1126.12256564 814.79373533 1125.39141941 809.77358818 C1122.3735719 789.04437512 1119.47361541 768.304154 1116.77539062 747.53092957 C1114.80682673 732.39248716 1112.67284891 717.27946132 1110.49929428 702.1692543 C1110.17947709 699.94418199 1109.86056064 697.71898221 1109.54190063 695.4937439 C1106.1724881 671.96724558 1102.71793289 648.45404412 1099.21923828 624.94641113 C1097.62328609 614.22106437 1096.03635155 603.49460324 1094.49453735 592.76132202 C1094.20891927 590.77403222 1093.92131264 588.78702849 1093.63354492 586.80004883 C1092.69851527 580.25138298 1091.83341426 573.69962786 1091.03060913 567.13366699 C1089.03891431 550.86327397 1086.7230613 534.6425216 1084.39154053 518.41821289 C1083.95402812 515.36901682 1083.51912119 512.31945148 1083.08419228 509.26988602 C1080.50056192 491.16212976 1077.83361049 473.07065412 1075 455 C1072.88121792 457.11878208 1073.10290629 461.41532291 1072.6875 464.33862305 C1072.49363315 465.66751698 1072.49363315 465.66751698 1072.2958498 467.02325726 C1071.85989935 470.01884519 1071.42998655 473.01526937 1071 476.01171875 C1070.68941635 478.15456196 1070.37846912 480.2973525 1070.06718445 482.44009399 C1069.21763222 488.29576279 1068.37335872 494.15218192 1067.53011703 500.00876236 C1066.64359468 506.16076835 1065.7527972 512.31215535 1064.86254883 518.46362305 C1063.45154336 528.21748826 1062.04313543 537.97172565 1060.6367141 547.72625268 C1058.77420636 560.64391948 1056.90577362 573.56071615 1055.03299141 586.47689724 C1054.83554055 587.83867814 1054.63809118 589.20045926 1054.44064331 590.5622406 C1054.29431692 591.57143725 1054.29431692 591.57143725 1054.14503443 592.60102171 C1052.88586869 601.28637791 1051.62937081 609.97212011 1050.37333488 618.65792942 C1049.44332983 625.08912845 1048.51258875 631.52021843 1047.57983398 637.95101929 C1046.69765847 644.03423104 1045.81856864 650.11788158 1044.94165993 656.20185471 C1044.62161991 658.41895808 1044.30058838 660.63591864 1043.97839928 662.85271072 C1042.38084719 673.84888113 1040.87169283 684.84438232 1039.58544922 695.8815918 C1037.82525059 710.93168896 1035.66888582 725.92351926 1033.52117038 740.92204094 C1033.0627382 744.12586865 1032.6060765 747.3299478 1032.14938313 750.53402376 C1031.07255634 758.08863472 1029.99292369 765.64284077 1028.91137695 773.19677734 C1027.8004082 780.9565319 1026.69408215 788.71693855 1025.58999485 796.47767496 C1024.6345021 803.19285468 1023.67628055 809.9076411 1022.71585804 816.62211752 C1022.14534795 820.6107843 1021.57581337 824.59958368 1021.00887871 828.58876038 C1020.47765494 832.3257466 1019.94300069 836.0622266 1019.40576553 839.7983532 C1019.11758474 841.80827555 1018.8328293 843.81868811 1018.54820251 845.82911682 C1017.61439038 852.29832217 1016.52574033 858.6433966 1015 865 C1014.67 865 1014.34 865 1014 865 C1011.88664162 851.81529389 1009.90808154 838.62510773 1008.25 825.375 C1006.40141015 810.70750017 1004.34358703 796.07188925 1002.25 781.4375 C1002.07893738 780.24134064 1001.90787476 779.04518127 1001.73162842 777.81277466 C999.33809919 761.10177411 996.87712251 744.40147726 994.38198853 727.7053833 C991.8120451 710.50673345 989.3205895 693.30502373 987.0625 676.0625 C984.70225743 658.04529997 982.19834839 640.05041452 979.625 622.0625 C979.52941929 621.39398262 979.43383858 620.72546524 979.33536148 620.03668976 C976.37837203 599.3603973 973.33038947 578.69836213 970.24227905 558.04122925 C968.07371448 543.51579379 966.01915644 528.98370792 964.15481567 514.41616821 C961.39951239 492.90270043 958.17726277 471.45444276 955 450 C953.51908182 460.2955707 952.0407171 470.59150495 950.56524372 480.88785744 C949.879368 485.67361479 949.19274875 490.45926248 948.50415039 495.24462891 C945.76806227 514.26254509 943.06100259 533.28107532 940.59375 552.3359375 C937.52085184 576.04864772 934.09988974 599.71212134 930.70599365 623.38061523 C930.020756 628.16396932 929.33809994 632.9476903 928.65543365 637.73141193 C925.01122824 663.26102822 921.30887716 688.78113918 917.51498604 714.28894615 C913.83445223 739.03791125 910.24005295 763.79902825 906.67041016 788.56420898 C905.78525641 794.70440479 904.89704188 800.84415405 904.00818825 806.98381519 C903.30831551 811.82151135 902.61046035 816.659497 901.91315842 821.49756432 C901.58618982 823.7639364 901.25852064 826.03020756 900.93007278 828.29636574 C899.11187977 840.8470267 897.39270968 853.39445787 896 866 C895.34 865.67 894.68 865.34 894 865 C893.60109269 862.50209433 893.32802032 860.0746511 893.11328125 857.55859375 C892.35917883 849.89027374 891.37037372 842.28054454 890.23046875 834.66015625 C890.06803177 833.57178467 889.90559479 832.48341309 889.73823547 831.36206055 C889.39843027 829.09522796 889.05747252 826.82856787 888.71542358 824.56207275 C887.81343302 818.58283314 886.92341512 812.6018058 886.03125 806.62109375 C885.85514694 805.44272949 885.67904388 804.26436523 885.49760437 803.05029297 C884.13679337 793.93990903 882.79366614 784.82719244 881.48648071 775.70895386 C881.20447407 773.74331258 880.92006297 771.77801669 880.63549805 769.81274414 C879.53443918 762.1033034 878.54516454 754.38535532 877.59375 746.65625 C875.9944864 733.70549843 874.17251215 720.79051975 872.3125 707.875 C871.96374929 705.44246943 871.61503591 703.0099335 871.26635742 700.57739258 C868.50313889 681.33813868 865.65957401 662.11105676 862.80126953 642.88574219 C861.01110922 630.84253448 859.22381625 618.79905882 857.49252319 606.7472229 C857.20773305 604.76577302 856.92095893 602.78460856 856.6340332 600.8034668 C855.53500192 593.10618675 854.54730507 585.40049713 853.59765625 577.68359375 C851.97956929 564.57749721 850.13160923 551.50798651 848.25 538.4375 C847.90154701 536.00432236 847.55315945 533.57113535 847.20483398 531.13793945 C845.48991841 519.18573443 843.74735769 507.23802486 841.95703125 495.296875 C841.79570709 494.2201503 841.63438293 493.1434256 841.46817017 492.03407288 C840.70795182 486.96708895 839.94308388 481.90086729 839.17089844 476.83569336 C837.86818601 468.24046225 836.57444785 459.6823689 836 451 C833.16761281 465.98082338 831.05147521 481.06448595 828.91339111 496.15673828 C828.62962666 498.15492047 828.34401555 500.15282851 828.05761719 502.15063477 C825.94487742 516.89146459 823.9049658 531.63840881 821.99513626 546.40695381 C819.02573801 569.34123609 815.66307941 592.21573913 812.30075073 615.09518433 C810.50017457 627.34991338 808.71081679 639.60627969 806.92578125 651.86328125 C806.66264728 653.67002917 806.66264728 653.67002917 806.39419746 655.51327705 C803.45840446 675.68944479 800.64899194 695.87837777 797.95004272 716.08746338 C793.75705371 747.42038023 789.13675158 778.69199087 784.54454803 809.96843815 C783.90148187 814.34913457 783.25946917 818.72998517 782.61744308 823.11083412 C782.17431339 826.13010268 781.72916413 829.14906839 781.28384399 832.16801453 C779.72632677 842.76492645 778.26949552 853.36439197 777 864 C776.34 864 775.68 864 775 864 C774.90501221 863.31811615 774.81002441 862.6362323 774.7121582 861.9336853 C773.77512427 855.21018875 772.83569755 848.48702954 771.89413452 841.76416588 C771.41119643 838.31542728 770.92917702 834.8665675 770.44873047 831.41748047 C767.82782904 812.60741848 765.0935422 793.815983 762.296875 775.03125 C757.81715257 744.93116912 753.49060665 714.80980158 749.1876893 684.6840452 C748.3483244 678.80920037 747.50579173 672.93481282 746.66263127 667.06051171 C745.82724102 661.23930629 744.99411718 655.41777916 744.16261744 649.59601676 C743.6754174 646.18512045 743.18717943 642.77438284 742.69712067 639.36389542 C740.67620343 625.2922517 738.75026196 611.21486615 737.01757812 597.10498047 C735.13024723 581.74129597 732.98211193 566.41896161 730.75777149 551.10075378 C730.23372586 547.48708718 729.71324665 543.87290661 729.19232178 540.25878906 C728.21384236 533.47380567 727.23234925 526.68926216 726.24965453 519.90488815 C725.12743467 512.15615684 724.00875514 504.40691557 722.89031076 496.65763855 C720.59736218 480.77120547 718.3001698 464.88538925 716 449 C715.92957741 449.61625748 715.85915482 450.23251495 715.78659821 450.8674469 C713.99779627 466.40815784 711.93045177 481.88956727 709.62617493 497.36184692 C709.07575061 501.05838009 708.529764 504.75554763 707.98474121 508.45288086 C706.72931662 516.96395152 705.46774036 525.47410724 704.20575714 533.98420715 C702.9521355 542.43845328 701.70130574 550.89310426 700.45491028 559.34841919 C699.92430288 562.94029352 699.38970037 566.53155693 698.8548584 570.12280273 C696.9201474 583.19347448 695.20346306 596.27216929 693.66696167 609.39541626 C692.82376102 616.56546483 691.8333811 623.7102017 690.80078125 630.85546875 C690.60242556 632.24227372 690.40429276 633.62911058 690.20635986 635.01597595 C689.68574907 638.6580986 689.16149413 642.2996867 688.63621902 645.94113922 C688.30786721 648.21964801 687.98063815 650.49831534 687.65377808 652.77703857 C684.07014945 677.76023841 680.41368025 702.73237192 676.69140625 727.6953125 C676.54665359 728.66783463 676.40190094 729.64035675 676.25276184 730.64234924 C675.58638184 735.11079853 674.91284472 739.5778345 674.21826172 744.04199219 C672.85543313 752.84997397 671.6566041 761.65810002 670.62890625 770.51171875 C668.80119251 786.20397084 666.52813736 801.83092905 664.27496338 817.4664917 C663.82128709 820.62039937 663.37079238 823.77475813 662.92034054 826.92912769 C662.47961673 830.01364703 662.03742721 833.09795482 661.59475899 836.18219566 C661.38675253 837.63196884 661.17906247 839.08178747 660.97172356 840.53165627 C659.75363037 849.03976393 658.45819083 857.52929633 657 866 C656.67 866 656.34 866 656 866 C654.2953658 856.42503341 652.81256568 846.85254169 651.65625 837.1953125 C649.98512163 823.56353753 648.05702695 809.97166115 646.10058975 796.3783226 C645.80722222 794.33829927 645.51473163 792.29815196 645.22250366 790.25796509 C642.31238831 769.94336155 639.33482495 749.63923014 636.31451416 729.34069824 C634.20311217 715.15000958 632.10329088 700.95794311 630.0652771 686.75650024 C629.82157667 685.05894434 629.5771824 683.36148783 629.3319397 681.66415405 C627.98597183 672.33929923 626.74114384 663.00766821 625.59375 653.65625 C623.93777719 640.20466793 622.03109263 626.79143323 620.10038757 613.37690735 C619.80742441 611.33970544 619.51533601 609.30237986 619.22351074 607.26501465 C616.13023141 585.67192035 612.95746235 564.09107629 609.74829102 542.51489258 C605.71591652 515.40169265 601.81699637 488.28348961 598.40136719 461.08496094 C597.96342131 457.71885136 597.48249566 454.35998294 597 451 C594.99578987 464.53762582 592.99576999 478.0758641 591.00063801 491.61483097 C590.07340536 497.90618759 589.14489979 504.19735002 588.21313477 510.48803711 C583.10995805 544.78655659 583.10995805 544.78655659 578.55078125 579.16015625 C576.49390716 595.75311698 574.11339373 612.29447276 571.6796875 628.8359375 C571.58279719 629.49481956 571.48590688 630.15370162 571.3860805 630.83254981 C569.9900804 640.32388336 568.5867825 649.81413371 567.18162537 659.3041153 C565.75835935 668.91656144 564.33633532 678.52918501 562.921507 688.14287722 C562.27013346 692.56736646 561.6136416 696.99107753 560.95602417 701.41464233 C558.98795093 714.73016233 557.22767505 728.05194628 555.66397095 741.42080688 C554.81526783 748.64227993 553.81058216 755.83569791 552.765625 763.03125 C552.56432962 764.43277376 552.36329886 765.83433554 552.1625061 767.2359314 C551.63607653 770.90588904 551.10626674 774.57535041 550.57570648 778.24471283 C550.022431 782.07575448 549.47252832 785.90728018 548.92236328 789.73876953 C548.14643094 795.1407369 547.3695814 800.54257059 546.59135628 805.94420815 C544.82758971 818.18665661 543.07815462 830.43113519 541.3314209 842.67602539 C540.61487383 847.69817907 539.897262 852.72018054 539.1796875 857.7421875 C538.94774852 859.36572189 538.71581427 860.98925695 538.48388672 862.61279297 C538.24436279 864.28946045 538.24436279 864.28946045 538 866 C535.02809607 863.02809607 535.13460581 859.47250474 534.59765625 855.4609375 C534.4744249 854.58845367 534.35119354 853.71596985 534.22422791 852.81704712 C533.82913441 850.00406384 533.44587073 847.18960221 533.0625 844.375 C532.80867175 842.56369977 532.55412145 840.75250057 532.29882812 838.94140625 C530.96115969 829.38241081 529.71784688 819.81418124 528.5390625 810.234375 C526.95912855 797.42422591 525.15229189 784.65005773 523.3125 771.875 C522.9644819 769.44759635 522.61650092 767.02018739 522.26855469 764.59277344 C519.32159411 744.07439037 516.28414959 723.56963464 513.23632812 703.06604004 C511.7037226 692.75469181 510.1726875 682.44330262 508.6875 672.125 C508.5524707 671.19719727 508.41744141 670.26939453 508.27832031 669.31347656 C507.45207488 663.52563758 506.71533209 657.72894901 506.00100708 651.92645264 C504.2706907 637.88422111 502.32873605 623.87875193 500.3125 609.875 C499.96226167 607.43002151 499.61208399 604.98503434 499.26196289 602.54003906 C497.03864771 587.04772331 494.75125782 571.56557173 492.4364624 556.08670044 C492.18947601 554.43503372 492.18947601 554.43503372 491.9375 552.75 C491.77300354 551.65025848 491.60850708 550.55051697 491.43902588 549.41744995 C488.4122856 529.14423583 485.63053996 508.84232949 482.93959045 488.52206421 C482.80870529 487.53380646 482.67782013 486.54554871 482.54296875 485.52734375 C482.41566879 484.56543121 482.28836884 483.60351868 482.1572113 482.61245728 C480.84309968 472.73136587 479.43071263 462.86479246 478 453 C475.98059463 462.6851828 474.24722364 472.35231314 472.84375 482.1484375 C472.56114319 484.0918956 472.56114319 484.0918956 472.27282715 486.07461548 C471.87707909 488.79856703 471.48409061 491.52289701 471.09326172 494.24755859 C470.60396966 497.65759282 470.10842622 501.06668163 469.61095905 504.47553158 C467.61289588 518.18176972 465.72847437 531.89222157 464.12797546 545.65141296 C462.59419025 558.69611834 460.68887013 571.68851049 458.8125 584.6875 C458.61670897 586.04991787 458.42105222 587.41235505 458.2255249 588.77481079 C454.79535232 612.67652679 451.28497987 636.56625425 447.7265625 660.44921875 C447.57867783 661.44366501 447.43079315 662.43811127 447.27842712 663.46269226 C446.60223051 668.00131335 445.91915953 672.53855716 445.21386719 677.07275391 C444.02139501 684.77969984 442.91855197 692.48268836 442.02809048 700.23097897 C440.29933298 715.26408891 438.14453746 730.22568283 435.92502856 745.19286227 C435.40400453 748.71263989 434.88738026 752.23306324 434.37037659 755.75343323 C433.06330151 764.64869595 431.75065519 773.54313316 430.4375 782.4375 C429.01483572 792.07422206 427.59332092 801.71110814 426.17779213 811.3488813 C425.66663959 814.82805225 425.15419164 818.30702122 424.63848686 821.78552055 C424.06362224 825.66310042 423.49263522 829.54123987 422.92358398 833.41967773 C422.74785071 834.61516456 422.57211744 835.81065138 422.39105892 837.04236507 C421.2862969 844.67868956 420.32107886 852.31705937 419.67031765 860.0066061 C419.51329238 861.67864398 419.26684335 863.34194022 419 865 C418.34 865.33 417.68 865.66 417 866 C409.02438916 810.75240732 409.02438916 810.75240732 407 794.5 C402.99095678 762.5005459 398.14831455 730.59907219 393.38198853 698.7053833 C390.8120451 681.50673345 388.3205895 664.30502373 386.0625 647.0625 C383.70225743 629.04529997 381.19834839 611.05041452 378.625 593.0625 C378.48162893 592.05972393 378.48162893 592.05972393 378.33536148 591.03668976 C375.37976458 570.37013449 372.33498965 549.71754107 369.24630737 529.07043457 C366.86402659 513.12609329 364.64577569 497.16876173 362.59204102 481.17895508 C361.25077744 470.75189795 359.73719197 460.36906055 358 450 C357.90130615 450.98758301 357.8026123 451.97516602 357.70092773 452.99267578 C356.24673669 467.01651424 354.16045004 480.9353942 352.0625 494.875 C351.71128302 497.22521478 351.3603701 499.57547502 351.00976562 501.92578125 C348.2169293 520.6242469 348.2169293 520.6242469 347.18310547 527.27050781 C345.8236816 536.05680581 344.63378587 544.84430286 343.60546875 553.67578125 C341.87920647 568.46781581 339.76236375 583.20098067 337.6364212 597.93952179 C337.19590195 600.99667788 336.75759128 604.05414934 336.31914139 607.11160278 C332.70010633 632.34062361 328.97615947 657.55368525 325.2237854 682.76319885 C322.94426695 698.08585959 320.71085195 713.41162039 318.7344389 728.77680683 C315.3683741 754.91512543 311.57930016 780.98911311 307.76153564 807.06469727 C307.06911364 811.79937333 306.37971882 816.53448825 305.69034195 821.2696085 C305.02227697 825.85674013 304.35283338 830.44366967 303.68291473 835.03053093 C303.36523412 837.20618999 303.04787227 839.38189561 302.73084259 841.55764961 C302.29227731 844.56540469 301.85196522 847.57289875 301.41113281 850.58032227 C301.28232224 851.46577225 301.15351166 852.35122223 301.02079773 853.26350403 C300.44207425 857.19958877 299.83842169 861.10870809 299 865 C298.67 865 298.34 865 298 865 C297.3375517 860.8829919 296.68086708 856.76510911 296.02856445 852.64648438 C295.80797967 851.2582371 295.58606445 849.87020028 295.36254883 848.48242188 C293.93204242 839.59307906 292.68583509 830.69521911 291.59375 821.7578125 C289.94368627 808.27030576 288.03567262 794.82318251 286.09998322 781.37407684 C285.8078288 779.34251777 285.51654478 777.31083566 285.2255249 775.27911377 C281.94988288 752.41326445 278.5935228 729.55976491 275.18360901 706.71353149 C272.84130912 691.00535039 270.50657969 675.30377376 268.57421875 659.5390625 C266.92701595 646.12522259 265.02520638 632.75046346 263.09998322 619.37407684 C262.8078288 617.34251777 262.51654478 615.31083566 262.2255249 613.27911377 C259.09974604 591.45939479 255.90523727 569.65017365 252.65161133 547.84912109 C247.27119046 511.79507788 247.27119046 511.79507788 245.5625 497.4375 C244.30291301 487.04959159 242.83553462 476.69744398 241.26977539 466.35131836 C240.45619915 460.84369704 239.76559249 455.56919922 240 450 C239.34 450 238.68 450 238 450 C237.95482239 450.81484863 237.90964478 451.62969727 237.86309814 452.46923828 C237.26475715 462.0279245 236.06597615 471.40614893 234.671875 480.875 C234.43815441 482.49024273 234.20495192 484.10556049 233.972229 485.72094727 C233.36024375 489.96145728 232.74276281 494.20114606 232.12359619 498.44061279 C231.02910144 505.93864389 229.94280081 513.43786242 228.859375 520.9375 C228.73976095 521.7643631 228.6201469 522.5912262 228.49690819 523.44314575 C226.46898084 537.48274943 224.58581446 551.53845946 222.75514221 565.60498047 C220.99981402 579.08473098 219.126183 592.54535496 217.1875 606 C216.84859974 608.36286961 216.50973348 610.72574409 216.17089844 613.08862305 C213.28049133 633.20523862 210.31554582 653.31081126 207.32206726 673.412323 C207.01435276 675.47877864 206.70698817 677.54528642 206.39997864 679.61184692 C205.60285188 684.97354848 204.79812882 690.33396293 203.98242188 695.69287109 C202.36082053 706.40271738 200.82083293 717.10628067 199.578125 727.8671875 C197.73058332 743.82418323 195.40274533 759.71276876 193.11194229 775.61087418 C192.74629665 778.15072426 192.38179035 780.69073531 192.01766968 783.23080444 C188.10835077 810.50162598 184.12237733 837.76048323 180 865 C179.67 865 179.34 865 179 865 C174.78325782 836.5951091 170.57942828 808.18832857 166.39813232 779.77819824 C165.97232364 776.88501248 165.54625429 773.99186532 165.11993408 771.09875488 C163.74007881 761.73345404 162.36650098 752.36725955 161 743 C160.72965942 741.14961121 160.72965942 741.14961121 160.45385742 739.26184082 C158.54505391 726.16598241 156.72695602 713.06764497 155.11924744 699.93133545 C153.67694374 688.2233156 151.99395406 676.55065122 150.3125 664.875 C149.96374929 662.44246943 149.61503591 660.0099335 149.26635742 657.57739258 C146.50313889 638.33813868 143.65957401 619.11105676 140.80126953 599.88574219 C139.01110922 587.84253448 137.22381625 575.79905882 135.49252319 563.7472229 C135.20773305 561.76577302 134.92095893 559.78460856 134.6340332 557.8034668 C133.69290707 551.21210623 132.8232064 544.6174792 132.01457214 538.0087738 C130.11929228 522.53173273 127.91311366 507.10323183 125.68023682 491.67224121 C124.86692729 486.05079411 124.05608477 480.42899438 123.24769974 474.80683708 C122.96926069 472.87417792 122.68892887 470.94179175 122.40853882 469.00941467 C121.49692339 462.68070922 120.66012638 456.36001448 120 450 C119.10534981 452.68395056 118.71590762 454.851279 118.41088867 457.64111328 C118.303116 458.59412323 118.19534332 459.54713318 118.08430481 460.52902222 C117.96753891 461.57389801 117.85077301 462.6187738 117.73046875 463.6953125 C116.58477009 473.57074613 115.26275774 483.40871057 113.80078125 493.2421875 C113.65163584 494.24592281 113.65163584 494.24592281 113.49947739 495.26993561 C112.67559141 500.8087762 111.84373924 506.34641352 111.0100708 511.88378906 C110.28981276 516.6692323 109.57377715 521.45528466 108.86328125 526.2421875 C108.70208014 527.3280118 108.70208014 527.3280118 108.53762245 528.43577194 C106.4888606 542.28576121 104.61508934 556.15798095 102.75292587 570.03411102 C99.76360245 592.3065987 96.65792668 614.55650179 93.38671875 636.7890625 C93.29022167 637.4452688 93.1937246 638.1014751 93.09430337 638.77756643 C91.63094227 648.72753563 90.15998291 658.67637731 88.6875 668.625 C87.29234072 678.05184456 85.89968569 687.47904819 84.51239967 696.9070549 C83.97068266 700.58099373 83.42502103 704.2543306 82.8790741 707.92764282 C81.08845659 720.04763698 79.45054307 732.17073363 78.02601624 744.33936596 C77.05022954 752.67245027 75.93590349 760.97437619 74.73046875 769.27734375 C74.52641229 770.69820051 74.32261931 772.11909512 74.11906433 773.5400238 C73.5871503 777.24839847 73.05185968 780.95627746 72.51580048 784.66405487 C71.95906612 788.51937979 71.4056926 792.37518702 70.85205078 796.23095703 C69.97522951 802.33533081 69.09684429 808.43947718 68.21728516 814.54345703 C66.72228308 824.92041859 65.23986954 835.29917027 63.75967407 845.67825317 C63.16078525 849.87674654 62.56084803 854.07509002 61.9609375 858.2734375 C61.77131624 859.60074793 61.58169967 860.92805903 61.39208984 862.25537109 C61.19800537 863.6139624 61.19800537 863.6139624 61 865 C60.34 865 59.68 865 59 865 C58.89730301 864.19187866 58.79460602 863.38375732 58.688797 862.55114746 C54.65797583 831.01590747 50.1399394 799.54981422 45.62994111 768.08042431 C44.90062849 762.99051752 44.17305033 757.90036511 43.4465332 752.81005859 C39.19935534 723.05326022 34.91924707 693.30244151 30.49098206 663.57193947 C26.41554218 636.19817927 22.48969711 608.80321589 18.57652515 581.40589678 C17.77821207 575.81841584 16.97672166 570.23139374 16.17462319 564.64445513 C15.38087488 559.11464997 14.5893663 553.58452703 13.799496 548.05416662 C13.33636149 544.81172719 12.87217551 541.56944533 12.40619469 538.32741356 C10.3072714 523.71632131 8.35344143 509.10120771 6.6493988 494.4385376 C5.79824812 487.17229205 4.77050768 479.93312951 3.69238281 472.69750977 C3.36264839 470.47941166 3.04054195 468.26027868 2.71875 466.04101562 C2.50824847 464.61191488 2.29732958 463.18287554 2.0859375 461.75390625 C1.9007959 460.49908447 1.7156543 459.2442627 1.52490234 457.95141602 C1.15818161 455.07995469 1.15818161 455.07995469 0 453 C-1.4396297 460.41586619 -2.51756255 467.80666856 -3.35351562 475.3125 C-4.96889292 489.23832641 -6.98513943 503.09589867 -9.04203987 516.96234131 C-9.55995085 520.46015496 -10.07342508 523.95861989 -10.58728027 527.45703125 C-11.9973525 537.05179733 -13.41395272 546.64559701 -14.83069611 556.23937988 C-16.13259282 565.05593657 -17.43297589 573.87271025 -18.72811937 582.69026184 C-19.23531909 586.14228023 -19.74382667 589.59409374 -20.25578308 593.04541016 C-22.15340559 605.84783452 -24.00854457 618.64317976 -25.5 631.5 C-27.0694129 645.02883837 -29.04376228 658.49110034 -31.04203987 671.96234131 C-31.55995085 675.46015496 -32.07342508 678.95861989 -32.58728027 682.45703125 C-33.9973525 692.05179733 -35.41395272 701.64559701 -36.83069611 711.23937988 C-38.13259282 720.05593657 -39.43297589 728.87271025 -40.72811937 737.69026184 C-41.23531909 741.14228023 -41.74382667 744.59409374 -42.25578308 748.04541016 C-44.35176304 762.18606502 -46.33942725 776.32290456 -47.99682426 790.52215958 C-48.93702956 798.57436841 -50.02518159 806.59143524 -51.2265625 814.609375 C-51.42192327 815.92926221 -51.61701463 817.24918931 -51.81185913 818.56915283 C-52.21135923 821.27086244 -52.6130086 823.97223867 -53.01660156 826.67333984 C-53.5320326 830.12320993 -54.04317296 833.57369949 -54.55294228 837.02441025 C-55.04676112 840.36546318 -55.5428977 843.7061696 -56.0390625 847.046875 C-56.31249985 848.89197662 -56.31249985 848.89197662 -56.59146118 850.77435303 C-56.76188934 851.91454895 -56.9323175 853.05474487 -57.10791016 854.22949219 C-57.25652496 855.22664246 -57.40513977 856.22379272 -57.55825806 857.25115967 C-57.97591592 859.85013129 -58.46485704 862.42291736 -59 865 C-59.33 865 -59.66 865 -60 865 C-64.97568132 833.17803811 -69.85327538 801.33374335 -73.875 769.375 C-77.52632762 740.43303208 -81.81815785 711.56596038 -86.12109375 682.71484375 C-86.29510712 681.54692795 -86.46912048 680.37901215 -86.64840698 679.17570496 C-87.46768593 673.68199959 -88.29090602 668.1889412 -89.12207031 662.69702148 C-91.02346256 650.0571826 -92.75628607 637.40115775 -94.40625 624.7265625 C-96.78716249 606.43744529 -99.34100459 588.17637747 -101.96487427 569.920681 C-102.31995409 567.44809369 -102.67404365 564.97536641 -103.02783203 562.50259399 C-106.42081404 538.78906326 -109.86840675 515.08426895 -113.45043945 491.3984375 C-115.52383741 477.6245386 -117.3360826 463.82929241 -119 450 C-119.09054657 450.66332336 -119.18109314 451.32664673 -119.27438354 452.0100708 C-123.82197192 485.30021115 -128.46866022 518.57317178 -133.375 551.8125 C-133.4807711 552.52930435 -133.58654221 553.2461087 -133.69551849 553.9846344 C-134.40757052 558.80897746 -135.12127414 563.6330744 -135.8359375 568.45703125 C-136.02686981 569.74656708 -136.21780212 571.03610291 -136.41452026 572.36471558 C-137.21295755 577.74569393 -138.0152605 583.12577614 -138.84863281 588.50146484 C-140.18355583 597.1387973 -141.35484981 605.77516544 -142.36328125 614.45703125 C-144.22233102 630.40842078 -146.537135 646.29356313 -148.82754517 662.18748856 C-149.19188533 664.71795765 -149.55511207 667.24858414 -149.91796875 669.77926636 C-153.65524949 695.84391306 -157.45725426 721.89855952 -161.34375 747.94140625 C-161.48537064 748.89200424 -161.62699127 749.84260223 -161.77290344 750.82200623 C-162.42947648 755.22028195 -163.09347463 759.61711134 -163.77734375 764.01123047 C-165.1627904 772.96557273 -166.37924044 781.92174451 -167.4296875 790.921875 C-168.93630869 803.82504235 -170.73384577 816.67998052 -172.58935547 829.53710938 C-173.13451237 833.31593622 -173.67497229 837.09541474 -174.21484375 840.875 C-174.56223249 843.29691338 -174.90987866 845.71878986 -175.2578125 848.140625 C-175.41823029 849.26132385 -175.57864807 850.38202271 -175.743927 851.53668213 C-175.89433441 852.57677429 -176.04474182 853.61686646 -176.19970703 854.68847656 C-176.3959819 856.05096527 -176.3959819 856.05096527 -176.59622192 857.440979 C-176.99645255 859.97751738 -177.47819312 862.48591356 -178 865 C-180.28723083 862.71276917 -180.33849694 862.04971456 -180.73176575 858.94868469 C-180.84407595 858.0983774 -180.95638615 857.24807011 -181.07209969 856.37199593 C-181.18728384 855.4349526 -181.30246799 854.49790928 -181.42114258 853.5324707 C-181.54987196 852.54488203 -181.67860134 851.55729336 -181.81123161 850.53977776 C-182.09262148 848.37722689 -182.37034973 846.21419727 -182.6449337 844.05077171 C-183.39948232 838.11673318 -184.1844337 832.18670771 -184.96728516 826.25634766 C-185.13146155 825.00854995 -185.29563795 823.76075224 -185.46478939 822.47514248 C-187.27702021 808.77191131 -189.2596539 795.09454507 -191.26171875 781.41796875 C-191.6273127 778.91423892 -191.99288268 776.41050559 -192.35842896 773.9067688 C-193.46527406 766.33326129 -194.57614965 758.76034749 -195.6875 751.1875 C-196.99640669 742.26596259 -198.30320672 733.34412337 -199.60596657 724.42168617 C-200.11329729 720.95309974 -200.62373585 717.48498176 -201.13444519 714.01689148 C-202.8595995 702.24324806 -204.47557723 690.46150867 -205.97753906 678.65722656 C-207.7271872 664.91280901 -209.65206532 651.19980348 -211.66475105 637.49164009 C-212.24386428 633.54694539 -212.81967455 629.60177993 -213.39463806 625.65647888 C-214.61426077 617.29138017 -215.83816689 608.92691037 -217.0625 600.5625 C-218.38975927 591.49445652 -219.71609938 582.4262822 -221.03782266 573.35742992 C-221.69523735 568.84778939 -222.35638907 564.33870664 -223.01832581 559.82972717 C-224.95016778 546.61483168 -226.74416253 533.39309988 -228.36634827 520.13664246 C-229.09542184 514.18248755 -229.90521814 508.24178812 -230.76171875 502.3046875 C-230.91330444 501.2425 -231.06489014 500.1803125 -231.22106934 499.0859375 C-231.70765069 495.68196801 -232.19746938 492.27847449 -232.6875 488.875 C-233.0362732 486.44027538 -233.38498607 484.00554212 -233.73364258 481.57080078 C-235.4987451 469.27156517 -237.29204233 456.97680875 -239.125 444.6875 C-239.29876663 443.52131134 -239.47253326 442.35512268 -239.65156555 441.15359497 C-240.4697263 435.66783182 -241.29186522 430.18272066 -242.12182617 424.69873047 C-243.82743273 413.35999911 -245.40079188 402.01006957 -246.86447334 390.63793182 C-249.09688369 373.31682495 -251.55892447 356.0330409 -254.09333587 338.75367212 C-254.39054283 336.72712277 -254.68742342 334.70052584 -254.98421669 332.67391586 C-256.81893841 320.14765693 -258.65933435 307.62223683 -260.50878906 295.09814453 C-261.43296894 288.83948453 -262.3523462 282.58013726 -263.26666999 276.32002962 C-263.74533429 273.04429948 -264.22714877 269.76908392 -264.71356964 266.49449539 C-266.66700732 253.34054474 -268.56459696 240.30506594 -269 227 C-261.29636407 225.85360949 -253.59159147 224.71510929 -245.88598633 223.58203125 C-243.26592751 223.19581841 -240.64613207 222.8078144 -238.02661133 222.41796875 C-234.2567045 221.85723892 -230.48589083 221.30300264 -226.71484375 220.75 C-225.54791489 220.57500977 -224.38098602 220.40001953 -223.17869568 220.21972656 C-217.72992121 219.42679682 -212.50743395 218.77733685 -207 219 C-205.14355193 228.97137638 -203.50347588 238.96931494 -202 249 C-201.8462793 250.0103833 -201.69255859 251.0207666 -201.53417969 252.06176758 C-200.74212803 257.41549564 -200.0177356 262.76809782 -199.40039062 268.14453125 C-197.95663083 280.71662692 -196.28355404 293.23643137 -194.40625 305.75 C-194.28952942 306.52832184 -194.17280884 307.30664368 -194.05255127 308.10855103 C-193.20671073 313.73979413 -192.35406028 319.36999854 -191.5 325 C-190.52670721 331.41598723 -189.55624134 337.83238253 -188.59375 344.25 C-188.47761164 345.02391649 -188.36147327 345.79783298 -188.24181557 346.59520149 C-186.48923409 358.31237989 -184.96641886 370.04144154 -183.61279297 381.81201172 C-182.84792906 388.42318888 -181.86862734 394.99149762 -180.8125 401.5625 C-180.63525391 402.68978516 -180.45800781 403.81707031 -180.27539062 404.97851562 C-179.85429957 407.65301288 -179.42929768 410.32681027 -179 413 C-176.03140888 397.26766287 -173.77417319 381.42263093 -171.4575119 365.58448792 C-171.12122893 363.28673304 -170.78401501 360.98911637 -170.44659424 358.69152832 C-167.8764262 341.18117707 -165.34875458 323.66889763 -163.10153198 306.11367798 C-161.25824807 291.72398037 -159.24197206 277.36100645 -157.1875 263 C-157.01799835 261.81476746 -156.8484967 260.62953491 -156.67385864 259.40838623 C-153.95212623 240.40670056 -151.13440841 221.41994032 -148.29867554 202.43499756 C-146.24708869 188.67909238 -144.27239789 174.9197027 -142.5 161.125 C-140.52176075 145.73160125 -138.38557852 130.36356046 -136.1875 115 C-136.01851196 113.81869507 -135.84952393 112.63739014 -135.67541504 111.42028809 C-132.92924364 92.2544496 -130.09640215 73.10191011 -127.23934937 53.95233154 C-124.66038313 36.65528537 -122.19722004 19.34999971 -120 2 C-119.34 2 -118.68 2 -118 2 C-117.79855125 3.55873337 -117.79855125 3.55873337 -117.59303284 5.1489563 C-114.48669819 29.10663643 -111.17001247 53.02889676 -107.65234375 76.9296875 C-107.46197163 78.22376778 -107.2715995 79.51784805 -107.07545853 80.85114288 C-105.50137921 91.54384036 -103.92036653 102.23551041 -102.33770752 112.92694092 C-100.95923009 122.23974178 -99.58412609 131.55302959 -98.21484375 140.8671875 C-97.92927423 142.80946354 -97.92927423 142.80946354 -97.63793564 144.79097748 C-95.46544078 159.59758673 -93.37114318 174.40569005 -91.53515625 189.2578125 C-89.44444992 206.16566207 -87.0081509 223.02018573 -84.53125 239.875 C-84.43012948 240.56348101 -84.32900897 241.25196202 -84.22482419 241.9613061 C-82.6558998 252.64175967 -81.07873108 263.32099231 -79.5 274 C-77.8184733 285.37434793 -76.13950473 296.7490642 -74.46875 308.125 C-74.31794656 309.15129583 -74.31794656 309.15129583 -74.16409659 310.19832492 C-71.12342795 330.90031426 -68.27347521 351.6163346 -65.70444393 372.38206005 C-64.64519801 380.91675814 -63.43388877 389.42848015 -62.1875 397.9375 C-61.96911335 399.44592192 -61.75101728 400.95438593 -61.53320312 402.46289062 C-61.02539113 405.97573886 -60.51398439 409.4880488 -60 413 C-58.55837634 408.96996976 -57.59430325 405.15165229 -56.99438477 400.91650391 C-56.73885582 399.14141953 -56.73885582 399.14141953 -56.47816467 397.33047485 C-56.30103439 396.05868378 -56.12390411 394.7868927 -55.94140625 393.4765625 C-55.75010144 392.13009601 -55.5583557 390.78369211 -55.36619568 389.43734741 C-54.96360329 386.60844345 -54.56469125 383.77905434 -54.16870117 380.94921875 C-53.67181282 377.39868743 -53.16852955 373.84910492 -52.66275692 370.29982948 C-50.8579897 357.62864256 -49.08499487 344.95586516 -47.5390625 332.25 C-45.65005744 316.76255684 -43.39191072 301.32560224 -41.17265701 285.88279343 C-40.8081187 283.34449274 -40.44443829 280.80607051 -40.08102417 278.26760864 C-36.20641518 251.20603026 -32.2359742 224.1596403 -28.20718384 197.12057495 C-27.01654196 189.12452266 -25.83913555 181.12677265 -24.6875 173.125 C-24.552229 172.19550537 -24.41695801 171.26601074 -24.27758789 170.30834961 C-23.60780505 165.61652289 -22.98612728 160.92069204 -22.41357422 156.21606445 C-20.22572967 138.26129723 -17.68451279 120.36282971 -15.11214447 102.46001434 C-14.74621498 99.9111355 -14.38127541 97.36211682 -14.0166626 94.81304932 C-10.77037057 72.11881408 -7.48392169 49.43130777 -4.01855469 26.76928711 C-2.8620362 19.16109945 -1.73151687 11.60599615 -1.21533203 3.92041016 C-1 2 -1 2 0 0 Z " fill="#38E6FE" transform="translate(432,567)"/>
<path d="M0 0 C0.33 0 0.66 0 1 0 C1.33 2.97 1.66 5.94 2 9 C1.01 9 0.02 9 -1 9 C-0.67 6.03 -0.34 3.06 0 0 Z " fill="#75AAC6" transform="translate(1506,567)"/>
<path d="M0 0 C2 3 2 3 1.75 6.125 C1.5025 7.07375 1.255 8.0225 1 9 C0.01 9.495 0.01 9.495 -1 10 C-0.67 6.7 -0.34 3.4 0 0 Z " fill="#CE5175" transform="translate(1267,1015)"/>
<path d="M0 0 C0.33 0 0.66 0 1 0 C1.33 2.97 1.66 5.94 2 9 C1.01 9.33 0.02 9.66 -1 10 C-0.67 6.7 -0.34 3.4 0 0 Z " fill="#D44B70" transform="translate(1745,1014)"/>
<path d="M0 0 C0.33 0 0.66 0 1 0 C1.33 2.97 1.66 5.94 2 9 C1.01 9.33 0.02 9.66 -1 10 C-0.67 6.7 -0.34 3.4 0 0 Z " fill="#61BDD8" transform="translate(1267,567)"/>
<path d="M0 0 C0.33 0 0.66 0 1 0 C1.33 2.97 1.66 5.94 2 9 C1.01 8.67 0.02 8.34 -1 8 C-0.67 5.36 -0.34 2.72 0 0 Z " fill="#6AB4D1" transform="translate(909,567)"/>
</svg>
